<svg version="1.1" id="Layer_1" xmlns="http://www.w3.org/2000/svg" xmlns:xlink="http://www.w3.org/1999/xlink" x="0px" y="0px" style="enable-background:new 0 0 2000 2000;" xml:space="preserve" viewBox="724.08 687.87 551.83 624.28"><style type="text/css">	.st0{fill:#08091C;}	.st1{fill:#232026;}	.st2{fill:#03E0CE;}	.st3{fill:url(#SVGID_1_);}	.st4{fill:url(#SVGID_2_);}	.st5{fill:url(#SVGID_3_);}	.st6{fill:url(#SVGID_4_);}	.st7{fill:url(#SVGID_5_);}	.st8{fill:url(#SVGID_6_);}</style><g>	<path class="st2" d="M1222.81,848.85v-43.39c0-64.83-52.75-117.58-117.58-117.58v47.13c38.85,0,70.45,31.6,70.45,70.45v43.39   c0,30.73,13.91,58.26,35.76,76.66c-21.85,18.4-35.76,45.93-35.76,76.66v104.87c0,18.29-6.97,35.62-19.63,48.8l-0.52,0.54   l-91.85,108.62H1000h-63.68l-91.37-108.05l-1-1.11c-12.66-13.18-19.63-30.51-19.63-48.8v-104.87c0-30.73-13.91-58.26-35.76-76.66   c21.85-18.4,35.76-45.93,35.76-76.66v-43.39c0-38.85,31.6-70.45,70.45-70.45v-47.13c-64.83,0-117.58,52.75-117.58,117.58v43.39   c0,29.28-23.82,53.09-53.1,53.09v47.13c29.28,0,53.1,23.82,53.1,53.09v104.87c0,30.26,11.44,58.95,32.23,80.88l105.03,124.21H1000   h85.55l105.03-124.21c20.79-21.93,32.23-50.62,32.23-80.88v-104.87c0-29.28,23.82-53.09,53.1-53.09v-47.13   C1246.63,901.95,1222.81,878.13,1222.81,848.85z"></path>	<polygon class="st2" points="966.84,1159.94 1000,1127.71 1033.16,1159.94 1119.27,1159.94 1048.85,1112.2 1015.96,1112.2    984.04,1112.2 951.15,1112.2 880.73,1159.94  "></polygon>	<polygon class="st2" points="963.85,1177.67 1000,1205.29 1036.15,1177.67 1000,1177.67  "></polygon></g></svg>