<?xml version="1.0" encoding="utf-8"?>
<!-- Generator: Adobe Illustrator 24.3.0, SVG Export Plug-In . SVG Version: 6.00 Build 0)  -->
<svg version="1.1" id="Layer_1" xmlns="http://www.w3.org/2000/svg" xmlns:xlink="http://www.w3.org/1999/xlink" x="0px" y="0px"
	 viewBox="0 0 2000 2000" style="enable-background:new 0 0 2000 2000;" xml:space="preserve">
<style type="text/css">
	.st0{fill:#08091C;}
	.st1{fill:#050E21;}
	.st2{fill:url(#SVGID_1_);}
	.st3{fill:#131716;}
	.st4{fill:#232026;}
	.st5{fill:#03E0CE;}
	.st6{fill:url(#SVGID_2_);}
	.st7{fill:url(#SVGID_3_);}
	.st8{fill:url(#SVGID_4_);}
	.st9{fill:url(#SVGID_5_);}
	.st10{fill:url(#SVGID_6_);}
	.st11{fill:url(#SVGID_7_);}
	.st12{fill:#FFFFFF;}
	.st13{fill:#1FADFC;}
	.st14{opacity:0.4;fill:#231F20;}
	.st15{fill:#CE19F4;}
	.st16{fill:#55D690;}
</style>
<rect x="-46.32" y="-46.32" class="st3" width="2092.65" height="2092.65"/>
<g>
	<g>
		<path class="st16" d="M742,793.41c-11.51,0-22.53,2.31-33.05,6.95V695.42v-50.75h-51.33H614.3v50.75h43.31v291.56h0.08h0.36h47.29
			h3.61V861.21c1.72-3.34,4.03-6.48,6.91-9.42c7.25-7.38,15.97-11.1,26.14-11.1c10.05,0,18.76,3.71,26.16,11.1
			c7.38,7.4,11.1,16.11,11.1,26.16v109.02v0.18h47.29v-0.18V877.96c0-23.16-8.31-43.04-24.9-59.63
			C785.04,801.73,765.16,793.41,742,793.41z"/>
		<path class="st16" d="M708.95,1250.44v-5.25v-149.12v-1.45v-49.63v-1.12H614.3v50.75h43.31v173.24c0,51.31,41.6,92.91,92.91,92.91
			h73.29v-51.33h-55.87C735.37,1309.43,708.95,1283.01,708.95,1250.44z"/>
		<path class="st16" d="M1006.6,1152.71L1006.6,1152.71c0,10.19-3.69,18.93-11.1,26.26c-7.38,7.33-16.11,11-26.14,11
			c-10.19,0-18.91-3.67-26.16-11c-7.13-7.2-10.75-73.01-10.87-84.89h0.03v-50.75h-94.64v50.75h47.32v82.44v181.86h47.29v-111.73
			c21.76,9.36,39.59,24.11,53.47,44.26c13.88,20.16,20.81,42.65,20.81,67.46h47.29c0-24.82-5.15-48.12-15.48-69.87
			c-10.33-21.76-24.21-40.38-41.64-55.87c16.47-5.71,30.09-15.85,40.91-30.42c10.8-14.59,16.21-31.07,16.21-49.49h0v-48.49h-47.29
			V1152.71z"/>
		<path class="st16" d="M1368.07,970.81c-37.06,0-67.22-30.15-67.22-67.22V789.18c0-82.68-67.26-149.94-149.94-149.94H885.37v4.74
			h-0.33v343h47.29v-2.45c1.86,0.89,3.71,1.7,5.61,2.45c0.36,0.16,0.71,0.3,1.09,0.43c9.61,3.65,19.72,5.49,30.35,5.49
			c23.14,0,43.02-8.19,59.63-24.6c16.6-16.39,24.9-36.21,24.9-59.51c0-23.16-8.29-43-24.9-59.53c-16.6-16.54-36.49-24.8-59.63-24.8
			c-12.83,0-25.19,2.86-37.04,8.57v-140.5h218.59c53.28,0,96.63,43.35,96.63,96.63V903.6c0,39.13,18.75,73.95,47.73,95.98
			c-28.98,22.03-47.73,56.85-47.73,95.98v114.42c0,53.28-43.35,96.63-96.63,96.63h-52.31v53.31h52.31
			c82.68,0,149.94-67.26,149.94-149.94v-114.42c0-37.06,30.15-67.22,67.22-67.22h17.62v-4.22v-49.09v-4.22H1368.07z M943.2,882.64
			c7.25-7.38,15.97-11.1,26.16-11.1c10.03,0,18.76,3.71,26.14,11.1c7.4,7.38,11.1,16.11,11.1,26.16c0,10.17-3.69,18.89-11.1,26.14
			c-7.38,7.27-16.11,10.88-26.14,10.88c-10.19,0-18.91-3.61-26.16-10.88c-7.25-7.25-10.88-15.97-10.88-26.14
			C932.33,898.75,935.96,890.02,943.2,882.64z"/>
	</g>
</g>
</svg>
